<svg width="29" height="30" viewBox="0 0 29 30" fill="none" xmlns="http://www.w3.org/2000/svg">
<path d="M28.7115 14.3768L23.4963 9.70656C23.1118 9.36218 22.4895 9.36171 22.105 9.70381C21.7194 10.0461 21.7158 10.6046 22.0963 10.9513L25.5761 14.1212H11.5673C11.023 14.1212 10.5815 14.5125 10.5815 15.0001C10.5815 15.4877 11.0231 15.879 11.5673 15.879H25.6347L22.1019 19.0446C21.7173 19.3893 21.7173 19.9495 22.1019 20.2941C22.2944 20.4665 22.547 20.5533 22.7991 20.5533C23.0512 20.5533 23.3038 20.4674 23.4963 20.295L28.7115 15.6249C28.8963 15.4594 29 15.2348 29 15.0008C29 14.7668 28.8963 14.5423 28.7115 14.3768Z" fill="white"/>
<path d="M21.0785 23.0728C20.5343 23.0728 20.0971 23.468 20.0971 23.9556V28.2422H2.88959V1.75781H20.0971V6.04617C20.0971 6.53375 20.5343 6.92894 21.0785 6.92894C21.6227 6.92894 22.0599 6.53375 22.0599 6.04617V0.876386C22.0599 0.388769 21.6121 0 21.0679 0H1.91161C1.36741 0 0.926758 0.388769 0.926758 0.876386V29.1254C0.926758 29.613 1.36741 30 1.91164 30H21.0679C21.6121 30 22.0599 29.613 22.0599 29.1254V23.9556C22.0599 23.468 21.6227 23.0728 21.0785 23.0728Z" fill="white"/>
</svg>
