<svg width="30" height="30" viewBox="0 0 30 30" fill="none" xmlns="http://www.w3.org/2000/svg">
<path d="M0 11.25V26.25C0 27.2855 0.839424 28.125 1.875 28.125H7.5V9.375H1.875C0.839424 9.375 0 10.2144 0 11.25Z" fill="#1AE4BD"/>
<path d="M23.389 17.0294C23.4101 17.0601 23.4311 17.091 23.452 17.1219C23.431 17.1288 23.41 17.1357 23.389 17.1425C23.3886 17.1426 23.3883 17.1427 23.3879 17.1428C22.609 17.3949 21.8098 17.5834 20.9985 17.706C20.2729 17.8157 19.5376 17.8726 18.7985 17.8751L16.8874 16.1585L16.8782 16.1503L15.7236 15.1132C15.8733 14.9753 16.0266 14.8416 16.1833 14.7121C16.5892 14.3769 17.0183 14.0702 17.4672 13.7944C17.4709 13.7922 17.4745 13.7899 17.4782 13.7877C17.568 13.7326 17.6586 13.6789 17.75 13.6263C18.0667 13.4443 18.3926 13.2774 18.7266 13.1263C19.0608 13.2775 19.3862 13.4445 19.702 13.6263C20.1549 13.887 20.588 14.1782 20.9985 14.4971C21.0891 14.5674 21.1786 14.6391 21.267 14.7121C22.0764 15.3811 22.7911 16.1607 23.3879 17.0278C23.3882 17.0283 23.3886 17.0288 23.389 17.0294ZM16.8849 16.1685L18.7809 17.8751C18.0231 17.8767 17.2613 17.8211 16.5017 17.7064C16.4977 17.7058 16.4937 17.7052 16.4897 17.7046C16.2642 17.6703 16.0389 17.6309 15.814 17.5862C15.5783 17.514 15.3453 17.4353 15.1152 17.3505C15.1087 17.3481 15.1023 17.3457 15.0959 17.3433C14.7932 17.2311 14.4955 17.1081 14.2033 16.9747C14.1963 16.936 14.1894 16.8972 14.1827 16.8583C14.6136 16.2548 15.1009 15.6981 15.6359 15.1948C15.6438 15.1873 15.6517 15.1799 15.6597 15.1725C15.6791 15.1544 15.6986 15.1363 15.7181 15.1182L16.8757 16.1603L16.8849 16.1685Z" fill="#1AE4BD" stroke="#1AE4BD" stroke-width="32"/>
</svg>
