<svg width="33" height="50" viewBox="0 0 33 50" fill="none" xmlns="http://www.w3.org/2000/svg">
<path d="M32 16.6063C32 22.4939 28.9557 30.662 25.3409 37.439C23.544 40.8079 21.6365 43.7756 19.9536 45.8862C19.11 46.9443 18.344 47.7601 17.6958 48.3015C16.9966 48.8856 16.6102 49 16.5 49L16.4999 49C16.4958 48.9997 16.3943 48.9922 16.1713 48.862C15.9518 48.734 15.677 48.5236 15.35 48.2145C14.6962 47.5966 13.9253 46.672 13.0772 45.4893C11.3859 43.1305 9.47217 39.8645 7.66957 36.292C5.86858 32.7226 4.19292 28.8759 2.97004 25.3644C1.73743 21.8249 1 18.7233 1 16.6063C1 7.98112 7.94563 1 16.5 1C25.0544 1 32 7.98112 32 16.6063Z" stroke="#1AE4BD" stroke-width="2"/>
<circle cx="17" cy="16" r="6" stroke="#1AE4BD" stroke-width="2"/>
</svg>
